grf
version=1
nRows=16
nColumns=46
inDegrees=yes
endheader
time	ground_force_1_vx	ground_force_1_vy	ground_force_1_vz	ground_force_1_px	ground_force_1_py	ground_force_1_pz	ground_moment_1_mx	ground_moment_1_my	ground_moment_1_mz	ground_force_2_vx	ground_force_2_vy	ground_force_2_vz	ground_force_2_px	ground_force_2_py	ground_force_2_pz	ground_moment_2_mx	ground_moment_2_my	ground_moment_2_mz	ground_force_3_vx	ground_force_3_vy	ground_force_3_vz	ground_force_3_px	ground_force_3_py	ground_force_3_pz	ground_moment_3_mx	ground_moment_3_my	ground_moment_3_mz	ground_force_4_vx	ground_force_4_vy	ground_force_4_vz	ground_force_4_px	ground_force_4_py	ground_force_4_pz	ground_moment_4_mx	ground_moment_4_my	ground_moment_4_mz	ground_force_5_vx	ground_force_5_vy	ground_force_5_vz	ground_force_5_px	ground_force_5_py	ground_force_5_pz	ground_moment_5_mx	ground_moment_5_my	ground_moment_5_mz
1.615000	0.000000	0.000000	0.000000	0.000000	0.000000	0.000000	0.000000	0.000000	0.000000	0.000000	0.000000	0.000000	0.000000	0.000000	0.000000	0.000000	0.000000	0.000000	0.000000	0.000000	0.000000	0.000000	0.000000	0.000000	0.000000	0.000000	0.000000	6.821969	651.328501	-121.741358	0.174504	0.000000	-0.852382	-0.000000	9.849371	0.000000	-7.405226	626.992655	133.926490	0.216269	0.000000	-1.607865	0.000000	-10.372673	-0.000000
1.615500	0.000000	0.000000	0.000000	0.000000	0.000000	0.000000	0.000000	0.000000	0.000000	0.000000	0.000000	0.000000	0.000000	0.000000	0.000000	0.000000	0.000000	0.000000	0.000000	0.000000	0.000000	0.000000	0.000000	0.000000	0.000000	0.000000	0.000000	6.811925	651.307887	-121.739324	0.174530	0.000000	-0.852369	-0.000000	9.855674	0.000000	-7.320379	627.121327	133.898625	0.216247	0.000000	-1.607852	0.000000	-10.376553	-0.000000
1.616000	0.000000	0.000000	0.000000	0.000000	0.000000	0.000000	0.000000	0.000000	0.000000	0.000000	0.000000	0.000000	0.000000	0.000000	0.000000	0.000000	0.000000	0.000000	0.000000	0.000000	0.000000	0.000000	0.000000	0.000000	0.000000	0.000000	0.000000	6.801076	651.285338	-121.736852	0.174557	0.000000	-0.852356	-0.000000	9.861949	0.000000	-7.237132	627.251201	133.869468	0.216226	0.000000	-1.607838	0.000000	-10.380531	-0.000000
1.616500	0.000000	0.000000	0.000000	0.000000	0.000000	0.000000	0.000000	0.000000	0.000000	0.000000	0.000000	0.000000	0.000000	0.000000	0.000000	0.000000	0.000000	0.000000	0.000000	0.000000	0.000000	0.000000	0.000000	0.000000	0.000000	0.000000	0.000000	6.789438	651.260821	-121.733880	0.174585	0.000000	-0.852343	-0.000000	9.868191	0.000000	-7.155472	627.382236	133.838918	0.216205	0.000000	-1.607824	0.000000	-10.384615	-0.000000
1.617000	0.000000	0.000000	0.000000	0.000000	0.000000	0.000000	0.000000	0.000000	0.000000	0.000000	0.000000	0.000000	0.000000	0.000000	0.000000	0.000000	0.000000	0.000000	0.000000	0.000000	0.000000	0.000000	0.000000	0.000000	0.000000	0.000000	0.000000	6.777025	651.234306	-121.730338	0.174612	0.000000	-0.852330	-0.000000	9.874398	0.000000	-7.075375	627.514372	133.806885	0.216184	0.000000	-1.607809	0.000000	-10.388813	-0.000000
1.617500	0.000000	0.000000	0.000000	0.000000	0.000000	0.000000	0.000000	0.000000	0.000000	0.000000	0.000000	0.000000	0.000000	0.000000	0.000000	0.000000	0.000000	0.000000	0.000000	0.000000	0.000000	0.000000	0.000000	0.000000	0.000000	0.000000	0.000000	6.763847	651.205765	-121.726158	0.174640	0.000000	-0.852317	-0.000000	9.880571	0.000000	-6.996812	627.647528	133.773295	0.216164	0.000000	-1.607794	0.000000	-10.393132	-0.000000
1.618000	0.000000	0.000000	0.000000	0.000000	0.000000	0.000000	0.000000	0.000000	0.000000	0.000000	0.000000	0.000000	0.000000	0.000000	0.000000	0.000000	0.000000	0.000000	0.000000	0.000000	0.000000	0.000000	0.000000	0.000000	0.000000	0.000000	0.000000	6.749916	651.175172	-121.721269	0.174667	0.000000	-0.852304	-0.000000	9.886708	0.000000	-6.919745	627.781609	133.738084	0.216143	0.000000	-1.607779	0.000000	-10.397578	-0.000000
1.618500	0.000000	0.000000	0.000000	0.000000	0.000000	0.000000	0.000000	0.000000	0.000000	0.000000	0.000000	0.000000	0.000000	0.000000	0.000000	0.000000	0.000000	0.000000	0.000000	0.000000	0.000000	0.000000	0.000000	0.000000	0.000000	0.000000	0.000000	6.735248	651.142511	-121.715602	0.174695	0.000000	-0.852290	-0.000000	9.892811	0.000000	-6.844132	627.916506	133.701201	0.216122	0.000000	-1.607764	0.000000	-10.402154	-0.000000
1.619000	0.000000	0.000000	0.000000	0.000000	0.000000	0.000000	0.000000	0.000000	0.000000	0.000000	0.000000	0.000000	0.000000	0.000000	0.000000	0.000000	0.000000	0.000000	0.000000	0.000000	0.000000	0.000000	0.000000	0.000000	0.000000	0.000000	0.000000	6.719862	651.107781	-121.709089	0.174724	0.000000	-0.852277	-0.000000	9.898884	0.000000	-6.769927	628.052105	133.662600	0.216101	0.000000	-1.607748	0.000000	-10.406865	-0.000000
1.619500	0.000000	0.000000	0.000000	0.000000	0.000000	0.000000	0.000000	0.000000	0.000000	0.000000	0.000000	0.000000	0.000000	0.000000	0.000000	0.000000	0.000000	0.000000	0.000000	0.000000	0.000000	0.000000	0.000000	0.000000	0.000000	0.000000	0.000000	6.703785	651.070993	-121.701663	0.174752	0.000000	-0.852264	0.000000	9.904927	0.000000	-6.697087	628.188297	133.622235	0.216080	0.000000	-1.607732	0.000000	-10.411710	-0.000000
1.620000	0.000000	0.000000	0.000000	0.000000	0.000000	0.000000	0.000000	0.000000	0.000000	0.000000	0.000000	0.000000	0.000000	0.000000	0.000000	0.000000	0.000000	0.000000	0.000000	0.000000	0.000000	0.000000	0.000000	0.000000	0.000000	0.000000	0.000000	6.687047	651.032174	-121.693265	0.174780	0.000000	-0.852251	0.000000	9.910942	0.000000	-6.625568	628.324982	133.580065	0.216059	0.000000	-1.607715	0.000000	-10.416690	-0.000000
1.620500	0.000000	0.000000	0.000000	0.000000	0.000000	0.000000	0.000000	0.000000	0.000000	0.000000	0.000000	0.000000	0.000000	0.000000	0.000000	0.000000	0.000000	0.000000	0.000000	0.000000	0.000000	0.000000	0.000000	0.000000	0.000000	0.000000	0.000000	6.669680	650.991362	-121.683838	0.174809	0.000000	-0.852238	0.000000	9.916930	0.000000	-6.555327	628.462068	133.536051	0.216038	0.000000	-1.607698	0.000000	-10.421805	-0.000000
1.621000	0.000000	0.000000	0.000000	0.000000	0.000000	0.000000	0.000000	0.000000	0.000000	0.000000	0.000000	0.000000	0.000000	0.000000	0.000000	0.000000	0.000000	0.000000	0.000000	0.000000	0.000000	0.000000	0.000000	0.000000	0.000000	0.000000	0.000000	6.651716	650.948607	-121.673330	0.174837	0.000000	-0.852225	0.000000	9.922892	0.000000	-6.486312	628.599462	133.490160	0.216017	0.000000	-1.607681	0.000000	-10.427051	-0.000000
1.621500	0.000000	0.000000	0.000000	0.000000	0.000000	0.000000	0.000000	0.000000	0.000000	0.000000	0.000000	0.000000	0.000000	0.000000	0.000000	0.000000	0.000000	0.000000	0.000000	0.000000	0.000000	0.000000	0.000000	0.000000	0.000000	0.000000	0.000000	6.633191	650.903971	-121.661692	0.174866	0.000000	-0.852212	0.000000	9.928831	0.000000	-6.418467	628.737061	133.442366	0.215996	0.000000	-1.607663	0.000000	-10.432424	-0.000000
1.622000	0.000000	0.000000	0.000000	0.000000	0.000000	0.000000	0.000000	0.000000	0.000000	0.000000	0.000000	0.000000	0.000000	0.000000	0.000000	0.000000	0.000000	0.000000	0.000000	0.000000	0.000000	0.000000	0.000000	0.000000	0.000000	0.000000	0.000000	6.614135	650.857513	-121.648882	0.174895	0.000000	-0.852199	0.000000	9.934752	0.000000	-6.351734	628.874747	133.392650	0.215975	0.000000	-1.607645	0.000000	-10.437919	-0.000000
1.622500	0.000000	0.000000	0.000000	0.000000	0.000000	0.000000	0.000000	0.000000	0.000000	0.000000	0.000000	0.000000	0.000000	0.000000	0.000000	0.000000	0.000000	0.000000	0.000000	0.000000	0.000000	0.000000	0.000000	0.000000	0.000000	0.000000	0.000000	6.594576	650.809287	-121.634855	0.174924	0.000000	-0.852187	0.000000	9.940661	0.000000	-6.286056	629.012393	133.340998	0.215954	0.000000	-1.607627	0.000000	-10.443527	-0.000000
